<?xml version="1.0" encoding="UTF-8" standalone="no"?>
<!DOCTYPE svg PUBLIC "-//W3C//DTD SVG 1.1//EN"
 "http://www.w3.org/Graphics/SVG/1.1/DTD/svg11.dtd">
<!-- Generated by graphviz version 2.44.2~dev.20200806.1348 (20200806.1348)
 -->
<!-- Pages: 1 -->
<svg width="634pt" height="332pt"
 viewBox="0.00 0.00 634.17 332.00" xmlns="http://www.w3.org/2000/svg" xmlns:xlink="http://www.w3.org/1999/xlink">
<g id="graph0" class="graph" transform="scale(1 1) rotate(0) translate(4 328)">
<polygon fill="white" stroke="transparent" points="-4,4 -4,-328 630.17,-328 630.17,4 -4,4"/>
<!-- [root] azurerm_resource_group.abc -->
<g id="node1" class="node">
<title>[root] azurerm_resource_group.abc</title>
<polygon fill="none" stroke="black" points="431.18,-108 250.18,-108 250.18,-72 431.18,-72 431.18,-108"/>
<text text-anchor="middle" x="340.68" y="-86.3" font-family="Times New Roman,serif" font-size="14.00">azurerm_resource_group.abc</text>
</g>
<!-- [root] provider.azurerm -->
<g id="node4" class="node">
<title>[root] provider.azurerm</title>
<polygon fill="none" stroke="black" points="178.68,-36 75.79,-18 178.68,0 281.58,-18 178.68,-36"/>
<text text-anchor="middle" x="178.68" y="-14.3" font-family="Times New Roman,serif" font-size="14.00">provider.azurerm</text>
</g>
<!-- [root] azurerm_resource_group.abc&#45;&gt;[root] provider.azurerm -->
<g id="edge1" class="edge">
<title>[root] azurerm_resource_group.abc&#45;&gt;[root] provider.azurerm</title>
<path fill="none" stroke="black" d="M301.05,-71.88C275.14,-60.68 241.5,-46.14 216.05,-35.15"/>
<polygon fill="black" stroke="black" points="217.3,-31.87 206.73,-31.12 214.53,-38.3 217.3,-31.87"/>
</g>
<!-- [root] var.location -->
<g id="node5" class="node">
<title>[root] var.location</title>
<polygon fill="none" stroke="black" points="375.68,-36 299.68,-36 299.68,0 381.68,0 381.68,-30 375.68,-36"/>
<polyline fill="none" stroke="black" points="375.68,-36 375.68,-30 "/>
<polyline fill="none" stroke="black" points="381.68,-30 375.68,-30 "/>
<text text-anchor="middle" x="340.68" y="-14.3" font-family="Times New Roman,serif" font-size="14.00">var.location</text>
</g>
<!-- [root] azurerm_resource_group.abc&#45;&gt;[root] var.location -->
<g id="edge2" class="edge">
<title>[root] azurerm_resource_group.abc&#45;&gt;[root] var.location</title>
<path fill="none" stroke="black" d="M340.68,-71.7C340.68,-63.98 340.68,-54.71 340.68,-46.11"/>
<polygon fill="black" stroke="black" points="344.18,-46.1 340.68,-36.1 337.18,-46.1 344.18,-46.1"/>
</g>
<!-- [root] var.rg -->
<g id="node6" class="node">
<title>[root] var.rg</title>
<polygon fill="none" stroke="black" points="447.68,-36 399.68,-36 399.68,0 453.68,0 453.68,-30 447.68,-36"/>
<polyline fill="none" stroke="black" points="447.68,-36 447.68,-30 "/>
<polyline fill="none" stroke="black" points="453.68,-30 447.68,-30 "/>
<text text-anchor="middle" x="426.68" y="-14.3" font-family="Times New Roman,serif" font-size="14.00">var.rg</text>
</g>
<!-- [root] azurerm_resource_group.abc&#45;&gt;[root] var.rg -->
<g id="edge3" class="edge">
<title>[root] azurerm_resource_group.abc&#45;&gt;[root] var.rg</title>
<path fill="none" stroke="black" d="M361.94,-71.7C372.77,-62.88 386.1,-52.03 397.84,-42.47"/>
<polygon fill="black" stroke="black" points="400.12,-45.13 405.67,-36.1 395.7,-39.7 400.12,-45.13"/>
</g>
<!-- [root] azurerm_virtual_network.a -->
<g id="node2" class="node">
<title>[root] azurerm_virtual_network.a</title>
<polygon fill="none" stroke="black" points="331.68,-180 167.68,-180 167.68,-144 331.68,-144 331.68,-180"/>
<text text-anchor="middle" x="249.68" y="-158.3" font-family="Times New Roman,serif" font-size="14.00">azurerm_virtual_network.a</text>
</g>
<!-- [root] azurerm_virtual_network.a&#45;&gt;[root] azurerm_resource_group.abc -->
<g id="edge4" class="edge">
<title>[root] azurerm_virtual_network.a&#45;&gt;[root] azurerm_resource_group.abc</title>
<path fill="none" stroke="black" d="M272.18,-143.7C283.64,-134.88 297.74,-124.03 310.17,-114.47"/>
<polygon fill="black" stroke="black" points="312.66,-116.98 318.45,-108.1 308.39,-111.43 312.66,-116.98"/>
</g>
<!-- [root] azurerm_virtual_network.b -->
<g id="node3" class="node">
<title>[root] azurerm_virtual_network.b</title>
<polygon fill="none" stroke="black" points="515.68,-180 349.68,-180 349.68,-144 515.68,-144 515.68,-180"/>
<text text-anchor="middle" x="432.68" y="-158.3" font-family="Times New Roman,serif" font-size="14.00">azurerm_virtual_network.b</text>
</g>
<!-- [root] azurerm_virtual_network.b&#45;&gt;[root] azurerm_resource_group.abc -->
<g id="edge5" class="edge">
<title>[root] azurerm_virtual_network.b&#45;&gt;[root] azurerm_resource_group.abc</title>
<path fill="none" stroke="black" d="M409.94,-143.7C398.24,-134.8 383.82,-123.82 371.17,-114.2"/>
<polygon fill="black" stroke="black" points="373.24,-111.37 363.16,-108.1 369,-116.94 373.24,-111.37"/>
</g>
<!-- [root] meta.count&#45;boundary (EachMode fixup) -->
<g id="node7" class="node">
<title>[root] meta.count&#45;boundary (EachMode fixup)</title>
<ellipse fill="none" stroke="black" cx="180.68" cy="-234" rx="180.87" ry="18"/>
<text text-anchor="middle" x="180.68" y="-230.3" font-family="Times New Roman,serif" font-size="14.00">[root] meta.count&#45;boundary (EachMode fixup)</text>
</g>
<!-- [root] meta.count&#45;boundary (EachMode fixup)&#45;&gt;[root] azurerm_virtual_network.a -->
<g id="edge6" class="edge">
<title>[root] meta.count&#45;boundary (EachMode fixup)&#45;&gt;[root] azurerm_virtual_network.a</title>
<path fill="none" stroke="black" d="M197.39,-216.05C205.82,-207.5 216.21,-196.96 225.5,-187.54"/>
<polygon fill="black" stroke="black" points="228.13,-189.85 232.66,-180.28 223.14,-184.94 228.13,-189.85"/>
</g>
<!-- [root] meta.count&#45;boundary (EachMode fixup)&#45;&gt;[root] azurerm_virtual_network.b -->
<g id="edge7" class="edge">
<title>[root] meta.count&#45;boundary (EachMode fixup)&#45;&gt;[root] azurerm_virtual_network.b</title>
<path fill="none" stroke="black" d="M238.5,-216.94C275.07,-206.78 322.61,-193.58 361.49,-182.78"/>
<polygon fill="black" stroke="black" points="362.48,-186.13 371.18,-180.08 360.61,-179.39 362.48,-186.13"/>
</g>
<!-- [root] provider.azurerm (close) -->
<g id="node8" class="node">
<title>[root] provider.azurerm (close)</title>
<ellipse fill="none" stroke="black" cx="502.68" cy="-234" rx="123.48" ry="18"/>
<text text-anchor="middle" x="502.68" y="-230.3" font-family="Times New Roman,serif" font-size="14.00">[root] provider.azurerm (close)</text>
</g>
<!-- [root] provider.azurerm (close)&#45;&gt;[root] azurerm_virtual_network.a -->
<g id="edge8" class="edge">
<title>[root] provider.azurerm (close)&#45;&gt;[root] azurerm_virtual_network.a</title>
<path fill="none" stroke="black" d="M447.79,-217.81C410.6,-207.52 361.09,-193.83 320.88,-182.7"/>
<polygon fill="black" stroke="black" points="321.7,-179.3 311.13,-180 319.84,-186.04 321.7,-179.3"/>
</g>
<!-- [root] provider.azurerm (close)&#45;&gt;[root] azurerm_virtual_network.b -->
<g id="edge9" class="edge">
<title>[root] provider.azurerm (close)&#45;&gt;[root] azurerm_virtual_network.b</title>
<path fill="none" stroke="black" d="M485.74,-216.05C477.18,-207.5 466.64,-196.96 457.22,-187.54"/>
<polygon fill="black" stroke="black" points="459.51,-184.87 449.96,-180.28 454.56,-189.82 459.51,-184.87"/>
</g>
<!-- [root] root -->
<g id="node9" class="node">
<title>[root] root</title>
<ellipse fill="none" stroke="black" cx="341.68" cy="-306" rx="49.29" ry="18"/>
<text text-anchor="middle" x="341.68" y="-302.3" font-family="Times New Roman,serif" font-size="14.00">[root] root</text>
</g>
<!-- [root] root&#45;&gt;[root] meta.count&#45;boundary (EachMode fixup) -->
<g id="edge10" class="edge">
<title>[root] root&#45;&gt;[root] meta.count&#45;boundary (EachMode fixup)</title>
<path fill="none" stroke="black" d="M311.02,-291.67C287.6,-281.48 254.9,-267.27 228.11,-255.62"/>
<polygon fill="black" stroke="black" points="229.47,-252.39 218.9,-251.62 226.68,-258.81 229.47,-252.39"/>
</g>
<!-- [root] root&#45;&gt;[root] provider.azurerm (close) -->
<g id="edge11" class="edge">
<title>[root] root&#45;&gt;[root] provider.azurerm (close)</title>
<path fill="none" stroke="black" d="M372.35,-291.67C396.01,-281.38 429.16,-266.97 456.1,-255.25"/>
<polygon fill="black" stroke="black" points="457.57,-258.43 465.34,-251.23 454.78,-252.01 457.57,-258.43"/>
</g>
</g>
</svg>
