<?xml version="1.0" encoding="UTF-8" standalone="no"?>
<!DOCTYPE svg PUBLIC "-//W3C//DTD SVG 1.1//EN"
 "http://www.w3.org/Graphics/SVG/1.1/DTD/svg11.dtd">
<!-- Generated by graphviz version 2.44.2~dev.20200806.1348 (20200806.1348)
 -->
<!-- Pages: 1 -->
<svg width="634pt" height="404pt"
 viewBox="0.00 0.00 634.17 404.00" xmlns="http://www.w3.org/2000/svg" xmlns:xlink="http://www.w3.org/1999/xlink">
<g id="graph0" class="graph" transform="scale(1 1) rotate(0) translate(4 400)">
<polygon fill="white" stroke="transparent" points="-4,4 -4,-400 630.17,-400 630.17,4 -4,4"/>
<!-- [root] azurerm_resource_group.abc -->
<g id="node1" class="node">
<title>[root] azurerm_resource_group.abc</title>
<polygon fill="none" stroke="black" points="432.18,-108 251.18,-108 251.18,-72 432.18,-72 432.18,-108"/>
<text text-anchor="middle" x="341.68" y="-86.3" font-family="Times New Roman,serif" font-size="14.00">azurerm_resource_group.abc</text>
</g>
<!-- [root] provider.azurerm -->
<g id="node4" class="node">
<title>[root] provider.azurerm</title>
<polygon fill="none" stroke="black" points="179.68,-36 76.79,-18 179.68,0 282.58,-18 179.68,-36"/>
<text text-anchor="middle" x="179.68" y="-14.3" font-family="Times New Roman,serif" font-size="14.00">provider.azurerm</text>
</g>
<!-- [root] azurerm_resource_group.abc&#45;&gt;[root] provider.azurerm -->
<g id="edge1" class="edge">
<title>[root] azurerm_resource_group.abc&#45;&gt;[root] provider.azurerm</title>
<path fill="none" stroke="black" d="M302.05,-71.88C276.14,-60.68 242.5,-46.14 217.05,-35.15"/>
<polygon fill="black" stroke="black" points="218.3,-31.87 207.73,-31.12 215.53,-38.3 218.3,-31.87"/>
</g>
<!-- [root] var.location -->
<g id="node5" class="node">
<title>[root] var.location</title>
<polygon fill="none" stroke="black" points="376.68,-36 300.68,-36 300.68,0 382.68,0 382.68,-30 376.68,-36"/>
<polyline fill="none" stroke="black" points="376.68,-36 376.68,-30 "/>
<polyline fill="none" stroke="black" points="382.68,-30 376.68,-30 "/>
<text text-anchor="middle" x="341.68" y="-14.3" font-family="Times New Roman,serif" font-size="14.00">var.location</text>
</g>
<!-- [root] azurerm_resource_group.abc&#45;&gt;[root] var.location -->
<g id="edge2" class="edge">
<title>[root] azurerm_resource_group.abc&#45;&gt;[root] var.location</title>
<path fill="none" stroke="black" d="M341.68,-71.7C341.68,-63.98 341.68,-54.71 341.68,-46.11"/>
<polygon fill="black" stroke="black" points="345.18,-46.1 341.68,-36.1 338.18,-46.1 345.18,-46.1"/>
</g>
<!-- [root] var.rg -->
<g id="node6" class="node">
<title>[root] var.rg</title>
<polygon fill="none" stroke="black" points="448.68,-36 400.68,-36 400.68,0 454.68,0 454.68,-30 448.68,-36"/>
<polyline fill="none" stroke="black" points="448.68,-36 448.68,-30 "/>
<polyline fill="none" stroke="black" points="454.68,-30 448.68,-30 "/>
<text text-anchor="middle" x="427.68" y="-14.3" font-family="Times New Roman,serif" font-size="14.00">var.rg</text>
</g>
<!-- [root] azurerm_resource_group.abc&#45;&gt;[root] var.rg -->
<g id="edge3" class="edge">
<title>[root] azurerm_resource_group.abc&#45;&gt;[root] var.rg</title>
<path fill="none" stroke="black" d="M362.94,-71.7C373.77,-62.88 387.1,-52.03 398.84,-42.47"/>
<polygon fill="black" stroke="black" points="401.12,-45.13 406.67,-36.1 396.7,-39.7 401.12,-45.13"/>
</g>
<!-- [root] azurerm_virtual_network.a -->
<g id="node2" class="node">
<title>[root] azurerm_virtual_network.a</title>
<polygon fill="none" stroke="black" points="423.68,-180 259.68,-180 259.68,-144 423.68,-144 423.68,-180"/>
<text text-anchor="middle" x="341.68" y="-158.3" font-family="Times New Roman,serif" font-size="14.00">azurerm_virtual_network.a</text>
</g>
<!-- [root] azurerm_virtual_network.a&#45;&gt;[root] azurerm_resource_group.abc -->
<g id="edge4" class="edge">
<title>[root] azurerm_virtual_network.a&#45;&gt;[root] azurerm_resource_group.abc</title>
<path fill="none" stroke="black" d="M341.68,-143.7C341.68,-135.98 341.68,-126.71 341.68,-118.11"/>
<polygon fill="black" stroke="black" points="345.18,-118.1 341.68,-108.1 338.18,-118.1 345.18,-118.1"/>
</g>
<!-- [root] azurerm_virtual_network.b -->
<g id="node3" class="node">
<title>[root] azurerm_virtual_network.b</title>
<polygon fill="none" stroke="black" points="424.68,-252 258.68,-252 258.68,-216 424.68,-216 424.68,-252"/>
<text text-anchor="middle" x="341.68" y="-230.3" font-family="Times New Roman,serif" font-size="14.00">azurerm_virtual_network.b</text>
</g>
<!-- [root] azurerm_virtual_network.b&#45;&gt;[root] azurerm_virtual_network.a -->
<g id="edge5" class="edge">
<title>[root] azurerm_virtual_network.b&#45;&gt;[root] azurerm_virtual_network.a</title>
<path fill="none" stroke="black" d="M341.68,-215.7C341.68,-207.98 341.68,-198.71 341.68,-190.11"/>
<polygon fill="black" stroke="black" points="345.18,-190.1 341.68,-180.1 338.18,-190.1 345.18,-190.1"/>
</g>
<!-- [root] meta.count&#45;boundary (EachMode fixup) -->
<g id="node7" class="node">
<title>[root] meta.count&#45;boundary (EachMode fixup)</title>
<ellipse fill="none" stroke="black" cx="180.68" cy="-306" rx="180.87" ry="18"/>
<text text-anchor="middle" x="180.68" y="-302.3" font-family="Times New Roman,serif" font-size="14.00">[root] meta.count&#45;boundary (EachMode fixup)</text>
</g>
<!-- [root] meta.count&#45;boundary (EachMode fixup)&#45;&gt;[root] azurerm_virtual_network.b -->
<g id="edge6" class="edge">
<title>[root] meta.count&#45;boundary (EachMode fixup)&#45;&gt;[root] azurerm_virtual_network.b</title>
<path fill="none" stroke="black" d="M219.25,-288.23C241.32,-278.63 269.24,-266.5 292.84,-256.24"/>
<polygon fill="black" stroke="black" points="294.54,-259.31 302.32,-252.12 291.75,-252.89 294.54,-259.31"/>
</g>
<!-- [root] provider.azurerm (close) -->
<g id="node8" class="node">
<title>[root] provider.azurerm (close)</title>
<ellipse fill="none" stroke="black" cx="502.68" cy="-306" rx="123.48" ry="18"/>
<text text-anchor="middle" x="502.68" y="-302.3" font-family="Times New Roman,serif" font-size="14.00">[root] provider.azurerm (close)</text>
</g>
<!-- [root] provider.azurerm (close)&#45;&gt;[root] azurerm_virtual_network.b -->
<g id="edge7" class="edge">
<title>[root] provider.azurerm (close)&#45;&gt;[root] azurerm_virtual_network.b</title>
<path fill="none" stroke="black" d="M465.34,-288.76C442.95,-279.03 414.24,-266.55 390.12,-256.06"/>
<polygon fill="black" stroke="black" points="391.35,-252.78 380.79,-252 388.56,-259.2 391.35,-252.78"/>
</g>
<!-- [root] root -->
<g id="node9" class="node">
<title>[root] root</title>
<ellipse fill="none" stroke="black" cx="341.68" cy="-378" rx="49.29" ry="18"/>
<text text-anchor="middle" x="341.68" y="-374.3" font-family="Times New Roman,serif" font-size="14.00">[root] root</text>
</g>
<!-- [root] root&#45;&gt;[root] meta.count&#45;boundary (EachMode fixup) -->
<g id="edge8" class="edge">
<title>[root] root&#45;&gt;[root] meta.count&#45;boundary (EachMode fixup)</title>
<path fill="none" stroke="black" d="M311.02,-363.67C287.6,-353.48 254.9,-339.27 228.11,-327.62"/>
<polygon fill="black" stroke="black" points="229.47,-324.39 218.9,-323.62 226.68,-330.81 229.47,-324.39"/>
</g>
<!-- [root] root&#45;&gt;[root] provider.azurerm (close) -->
<g id="edge9" class="edge">
<title>[root] root&#45;&gt;[root] provider.azurerm (close)</title>
<path fill="none" stroke="black" d="M372.35,-363.67C396.01,-353.38 429.16,-338.97 456.1,-327.25"/>
<polygon fill="black" stroke="black" points="457.57,-330.43 465.34,-323.23 454.78,-324.01 457.57,-330.43"/>
</g>
</g>
</svg>
